<mxfile host="Electron" agent="Mozilla/5.0 (Windows NT 10.0; Win64; x64) AppleWebKit/537.36 (KHTML, like Gecko) draw.io/26.2.2 Chrome/134.0.6998.178 Electron/35.1.2 Safari/537.36" version="26.2.2">
  <diagram name="Diagram" id="hzu6iF3I0ZKqLbSzfym1">
    <mxGraphModel dx="297228" dy="192241" grid="1" gridSize="10" guides="1" tooltips="1" connect="1" arrows="1" fold="1" page="1" pageScale="1" pageWidth="850" pageHeight="1100" math="0" shadow="0">
      <root>
        <mxCell id="0" />
        <mxCell id="1" parent="0" />
        <mxCell id="lSI6ECLvZfoEFv0bwXGL-17" style="edgeStyle=orthogonalEdgeStyle;rounded=0;orthogonalLoop=1;jettySize=auto;html=1;entryX=0;entryY=0.5;entryDx=0;entryDy=0;" edge="1" parent="1" source="lSI6ECLvZfoEFv0bwXGL-13" target="lSI6ECLvZfoEFv0bwXGL-14">
          <mxGeometry relative="1" as="geometry" />
        </mxCell>
        <mxCell id="lSI6ECLvZfoEFv0bwXGL-3" value="Azure Service Bus Topic" style="shape=mxgraph.azure2.service_bus_topics;whiteSpace=wrap;html=1;strokeColor=default;align=center;verticalAlign=bottom;fontFamily=Helvetica;fontSize=12;fontColor=default;fillColor=default;" vertex="1" parent="1">
          <mxGeometry x="-22.5" y="774" width="120" height="60" as="geometry" />
        </mxCell>
        <mxCell id="lSI6ECLvZfoEFv0bwXGL-4" value="Azure Function with Trigger on Topic" style="shape=mxgraph.azure2.function_app;whiteSpace=wrap;html=1;strokeColor=default;align=center;verticalAlign=bottom;fontFamily=Helvetica;fontSize=12;fontColor=default;fillColor=default;" vertex="1" parent="1">
          <mxGeometry x="177.5" y="774" width="120" height="60" as="geometry" />
        </mxCell>
        <mxCell id="lSI6ECLvZfoEFv0bwXGL-5" value="SQL Database" style="shape=mxgraph.azure2.sql_database;whiteSpace=wrap;html=1;strokeColor=default;align=center;verticalAlign=bottom;fontFamily=Helvetica;fontSize=12;fontColor=default;fillColor=default;" vertex="1" parent="1">
          <mxGeometry x="377.5" y="774" width="120" height="60" as="geometry" />
        </mxCell>
        <mxCell id="lSI6ECLvZfoEFv0bwXGL-6" style="entryX=0;entryY=0.5;entryDx=0;entryDy=0;" edge="1" parent="1" source="lSI6ECLvZfoEFv0bwXGL-1" target="lSI6ECLvZfoEFv0bwXGL-13">
          <mxGeometry relative="1" as="geometry">
            <mxPoint x="327" y="101.46341463414865" as="targetPoint" />
          </mxGeometry>
        </mxCell>
        <mxCell id="lSI6ECLvZfoEFv0bwXGL-7" edge="1" parent="1" source="lSI6ECLvZfoEFv0bwXGL-2" target="lSI6ECLvZfoEFv0bwXGL-3" />
        <mxCell id="lSI6ECLvZfoEFv0bwXGL-18" style="edgeStyle=orthogonalEdgeStyle;rounded=0;orthogonalLoop=1;jettySize=auto;html=1;entryX=0;entryY=0.5;entryDx=0;entryDy=0;" edge="1" parent="1" source="lSI6ECLvZfoEFv0bwXGL-14" target="lSI6ECLvZfoEFv0bwXGL-15">
          <mxGeometry relative="1" as="geometry" />
        </mxCell>
        <mxCell id="lSI6ECLvZfoEFv0bwXGL-28" style="edgeStyle=orthogonalEdgeStyle;rounded=0;orthogonalLoop=1;jettySize=auto;html=1;entryX=0.5;entryY=0;entryDx=0;entryDy=0;" edge="1" parent="1" source="lSI6ECLvZfoEFv0bwXGL-15" target="lSI6ECLvZfoEFv0bwXGL-24">
          <mxGeometry relative="1" as="geometry" />
        </mxCell>
        <mxCell id="lSI6ECLvZfoEFv0bwXGL-29" style="edgeStyle=orthogonalEdgeStyle;rounded=0;orthogonalLoop=1;jettySize=auto;html=1;" edge="1" parent="1" source="lSI6ECLvZfoEFv0bwXGL-15" target="lSI6ECLvZfoEFv0bwXGL-23">
          <mxGeometry relative="1" as="geometry" />
        </mxCell>
        <mxCell id="lSI6ECLvZfoEFv0bwXGL-20" value="&lt;div style=&quot;font-family: Consolas, &amp;quot;Courier New&amp;quot;, monospace; font-weight: normal; line-height: 19px; white-space: pre;&quot;&gt;&lt;div&gt;&lt;span&gt;&lt;font style=&quot;color: rgb(0, 0, 0);&quot;&gt;trigger&lt;/font&gt;&lt;/span&gt;&lt;/div&gt;&lt;/div&gt;" style="text;whiteSpace=wrap;html=1;fontSize=11;" vertex="1" parent="1">
          <mxGeometry x="725" y="74" width="140" height="40" as="geometry" />
        </mxCell>
        <mxCell id="lSI6ECLvZfoEFv0bwXGL-22" value="&lt;div style=&quot;font-family: Consolas, &amp;quot;Courier New&amp;quot;, monospace; font-weight: normal; line-height: 19px; white-space: pre;&quot;&gt;&lt;div&gt;&lt;span&gt;&lt;font style=&quot;color: rgb(0, 0, 0);&quot;&gt;publish&lt;/font&gt;&lt;/span&gt;&lt;/div&gt;&lt;/div&gt;" style="text;whiteSpace=wrap;html=1;fontSize=11;" vertex="1" parent="1">
          <mxGeometry x="486" y="74" width="140" height="40" as="geometry" />
        </mxCell>
        <mxCell id="lSI6ECLvZfoEFv0bwXGL-23" value="&lt;a href=&quot;http://localhost:8025/&quot;&gt;SMTP Server&lt;/a&gt;" style="shape=mxgraph.azure2.storage_account;whiteSpace=wrap;html=1;verticalAlign=bottom;" vertex="1" parent="1">
          <mxGeometry x="884" y="260" width="120" height="110" as="geometry" />
        </mxCell>
        <mxCell id="lSI6ECLvZfoEFv0bwXGL-24" value="Products" style="shape=mxgraph.azure2.storage_account;whiteSpace=wrap;html=1;verticalAlign=bottom;" vertex="1" parent="1">
          <mxGeometry x="710" y="260" width="120" height="110" as="geometry" />
        </mxCell>
        <mxCell id="lSI6ECLvZfoEFv0bwXGL-25" value="" style="verticalLabelPosition=bottom;html=1;verticalAlign=top;align=center;strokeColor=none;fillColor=#00BEF2;shape=mxgraph.azure.sql_database;" vertex="1" parent="1">
          <mxGeometry x="750" y="280" width="37.5" height="50" as="geometry" />
        </mxCell>
        <mxCell id="lSI6ECLvZfoEFv0bwXGL-27" value="" style="sketch=0;pointerEvents=1;shadow=0;dashed=0;html=1;strokeColor=none;fillColor=#004C99;labelPosition=center;verticalLabelPosition=bottom;verticalAlign=top;outlineConnect=0;align=center;shape=mxgraph.office.servers.3rd_party_mail_server;" vertex="1" parent="1">
          <mxGeometry x="924.5" y="280" width="47" height="59" as="geometry" />
        </mxCell>
        <mxCell id="lSI6ECLvZfoEFv0bwXGL-30" value="&lt;div style=&quot;font-family: Consolas, &amp;quot;Courier New&amp;quot;, monospace; font-weight: normal; line-height: 19px; white-space: pre;&quot;&gt;&lt;div&gt;&lt;span&gt;&lt;font style=&quot;color: rgb(0, 0, 0);&quot;&gt;trigger&lt;/font&gt;&lt;/span&gt;&lt;/div&gt;&lt;/div&gt;" style="text;whiteSpace=wrap;html=1;fontSize=11;" vertex="1" parent="1">
          <mxGeometry x="262" y="70" width="140" height="40" as="geometry" />
        </mxCell>
        <mxCell id="lSI6ECLvZfoEFv0bwXGL-31" value="" style="group" vertex="1" connectable="0" parent="1">
          <mxGeometry x="122" y="50" width="120" height="110" as="geometry" />
        </mxCell>
        <mxCell id="lSI6ECLvZfoEFv0bwXGL-1" value="product-samples" style="shape=mxgraph.azure2.storage_account;whiteSpace=wrap;html=1;verticalAlign=bottom;" vertex="1" parent="lSI6ECLvZfoEFv0bwXGL-31">
          <mxGeometry width="120" height="110" as="geometry" />
        </mxCell>
        <mxCell id="lSI6ECLvZfoEFv0bwXGL-12" value="" style="image;aspect=fixed;html=1;points=[];align=center;fontSize=12;image=img/lib/azure2/general/Storage_Container.svg;" vertex="1" parent="lSI6ECLvZfoEFv0bwXGL-31">
          <mxGeometry x="28" y="24" width="64" height="52" as="geometry" />
        </mxCell>
        <mxCell id="lSI6ECLvZfoEFv0bwXGL-32" value="" style="group" vertex="1" connectable="0" parent="1">
          <mxGeometry x="348" y="50" width="690" height="350" as="geometry" />
        </mxCell>
        <mxCell id="lSI6ECLvZfoEFv0bwXGL-13" value="Products.Main" style="shape=mxgraph.azure2.storage_account;whiteSpace=wrap;html=1;verticalAlign=bottom;" vertex="1" parent="lSI6ECLvZfoEFv0bwXGL-32">
          <mxGeometry width="120" height="110" as="geometry" />
        </mxCell>
        <mxCell id="lSI6ECLvZfoEFv0bwXGL-9" value="" style="image;aspect=fixed;html=1;points=[];align=center;fontSize=12;image=img/lib/azure2/compute/Function_Apps.svg;" vertex="1" parent="lSI6ECLvZfoEFv0bwXGL-32">
          <mxGeometry x="26" y="20" width="68" height="60" as="geometry" />
        </mxCell>
        <mxCell id="lSI6ECLvZfoEFv0bwXGL-41" value="" style="image;aspect=fixed;perimeter=ellipsePerimeter;html=1;align=center;fontSize=12;verticalAlign=top;fontColor=#364149;shadow=0;dashed=0;image=img/lib/cumulus/container.svg;" vertex="1" parent="lSI6ECLvZfoEFv0bwXGL-32">
          <mxGeometry x="-19" y="-20" width="45" height="40" as="geometry" />
        </mxCell>
        <object placeholders="1" c4Name="Rancher Desktop" c4Type="ContainerScopeBoundary" c4Application="Container Management" label="&lt;font style=&quot;font-size: 16px&quot;&gt;&lt;b&gt;&lt;div style=&quot;text-align: left&quot;&gt;%c4Name%&lt;/div&gt;&lt;/b&gt;&lt;/font&gt;&lt;div style=&quot;text-align: left&quot;&gt;[%c4Application%]&lt;/div&gt;" id="lSI6ECLvZfoEFv0bwXGL-50">
          <mxCell style="rounded=1;fontSize=11;whiteSpace=wrap;html=1;dashed=1;arcSize=20;fillColor=none;strokeColor=#666666;fontColor=#333333;labelBackgroundColor=none;align=left;verticalAlign=bottom;labelBorderColor=none;spacingTop=0;spacing=10;dashPattern=8 4;metaEdit=1;rotatable=0;perimeter=rectanglePerimeter;noLabel=0;labelPadding=0;allowArrows=0;connectable=0;expand=0;recursiveResize=0;editable=1;pointerEvents=0;absoluteArcSize=1;points=[[0.25,0,0],[0.5,0,0],[0.75,0,0],[1,0.25,0],[1,0.5,0],[1,0.75,0],[0.75,1,0],[0.5,1,0],[0.25,1,0],[0,0.75,0],[0,0.5,0],[0,0.25,0]];" vertex="1" parent="lSI6ECLvZfoEFv0bwXGL-32">
            <mxGeometry x="-43" y="-70" width="733" height="420" as="geometry" />
          </mxCell>
        </object>
        <mxCell id="lSI6ECLvZfoEFv0bwXGL-33" value="" style="group" vertex="1" connectable="0" parent="1">
          <mxGeometry x="574" y="50" width="120" height="110" as="geometry" />
        </mxCell>
        <mxCell id="lSI6ECLvZfoEFv0bwXGL-14" value="product-samples" style="shape=mxgraph.azure2.storage_account;whiteSpace=wrap;html=1;verticalAlign=bottom;" vertex="1" parent="lSI6ECLvZfoEFv0bwXGL-33">
          <mxGeometry width="120" height="110" as="geometry" />
        </mxCell>
        <mxCell id="lSI6ECLvZfoEFv0bwXGL-16" value="" style="verticalLabelPosition=bottom;html=1;verticalAlign=top;align=center;strokeColor=none;fillColor=#00BEF2;shape=mxgraph.azure.service_bus_topics_and_subscriptions;pointerEvents=1;" vertex="1" parent="lSI6ECLvZfoEFv0bwXGL-33">
          <mxGeometry x="37.5" y="30" width="45" height="50" as="geometry" />
        </mxCell>
        <mxCell id="lSI6ECLvZfoEFv0bwXGL-46" value="" style="image;aspect=fixed;perimeter=ellipsePerimeter;html=1;align=center;fontSize=12;verticalAlign=top;fontColor=#364149;shadow=0;dashed=0;image=img/lib/cumulus/container.svg;" vertex="1" parent="lSI6ECLvZfoEFv0bwXGL-33">
          <mxGeometry x="-24" y="-20" width="45" height="40" as="geometry" />
        </mxCell>
        <mxCell id="lSI6ECLvZfoEFv0bwXGL-34" value="" style="group" vertex="1" connectable="0" parent="1">
          <mxGeometry x="800" y="50" width="140" height="110" as="geometry" />
        </mxCell>
        <mxCell id="lSI6ECLvZfoEFv0bwXGL-15" value="Products.SendMail" style="shape=mxgraph.azure2.storage_account;whiteSpace=wrap;html=1;verticalAlign=bottom;" vertex="1" parent="lSI6ECLvZfoEFv0bwXGL-34">
          <mxGeometry width="120" height="110" as="geometry" />
        </mxCell>
        <mxCell id="lSI6ECLvZfoEFv0bwXGL-19" value="" style="image;aspect=fixed;html=1;points=[];align=center;fontSize=12;image=img/lib/azure2/compute/Function_Apps.svg;" vertex="1" parent="lSI6ECLvZfoEFv0bwXGL-34">
          <mxGeometry x="30" y="20" width="68" height="60" as="geometry" />
        </mxCell>
        <mxCell id="lSI6ECLvZfoEFv0bwXGL-35" value="&lt;div style=&quot;font-family: Consolas, &amp;quot;Courier New&amp;quot;, monospace; font-weight: normal; line-height: 19px; white-space: pre;&quot;&gt;&lt;div&gt;&lt;span&gt;&lt;font style=&quot;color: rgb(0, 0, 0);&quot;&gt;subscription.1&lt;/font&gt;&lt;/span&gt;&lt;/div&gt;&lt;/div&gt;" style="text;whiteSpace=wrap;html=1;fontSize=11;" vertex="1" parent="lSI6ECLvZfoEFv0bwXGL-34">
          <mxGeometry x="4" y="-8" width="140" height="40" as="geometry" />
        </mxCell>
        <mxCell id="lSI6ECLvZfoEFv0bwXGL-47" value="" style="image;aspect=fixed;perimeter=ellipsePerimeter;html=1;align=center;fontSize=12;verticalAlign=top;fontColor=#364149;shadow=0;dashed=0;image=img/lib/cumulus/container.svg;" vertex="1" parent="lSI6ECLvZfoEFv0bwXGL-34">
          <mxGeometry x="-20" y="-20" width="45" height="40" as="geometry" />
        </mxCell>
        <mxCell id="lSI6ECLvZfoEFv0bwXGL-36" value="&lt;div style=&quot;font-family: Consolas, &amp;quot;Courier New&amp;quot;, monospace; font-weight: normal; line-height: 19px; white-space: pre;&quot;&gt;&lt;div&gt;&lt;span&gt;&lt;font style=&quot;color: rgb(0, 0, 0);&quot;&gt;insert&lt;/font&gt;&lt;/span&gt;&lt;/div&gt;&lt;/div&gt;" style="text;whiteSpace=wrap;html=1;fontSize=11;" vertex="1" parent="1">
          <mxGeometry x="772" y="180" width="58" height="40" as="geometry" />
        </mxCell>
        <mxCell id="lSI6ECLvZfoEFv0bwXGL-37" value="&lt;div style=&quot;font-family: Consolas, &amp;quot;Courier New&amp;quot;, monospace; font-weight: normal; line-height: 19px; white-space: pre;&quot;&gt;&lt;div&gt;&lt;span&gt;&lt;font style=&quot;color: rgb(0, 0, 0);&quot;&gt;send mail&lt;/font&gt;&lt;/span&gt;&lt;/div&gt;&lt;/div&gt;" style="text;whiteSpace=wrap;html=1;fontSize=11;" vertex="1" parent="1">
          <mxGeometry x="901" y="180" width="58" height="40" as="geometry" />
        </mxCell>
        <mxCell id="lSI6ECLvZfoEFv0bwXGL-39" style="edgeStyle=orthogonalEdgeStyle;rounded=0;orthogonalLoop=1;jettySize=auto;html=1;entryX=0.5;entryY=0;entryDx=0;entryDy=0;" edge="1" parent="1" source="lSI6ECLvZfoEFv0bwXGL-38" target="lSI6ECLvZfoEFv0bwXGL-1">
          <mxGeometry relative="1" as="geometry" />
        </mxCell>
        <mxCell id="lSI6ECLvZfoEFv0bwXGL-38" value="" style="verticalLabelPosition=bottom;shadow=0;dashed=0;align=center;html=1;verticalAlign=top;strokeWidth=1;shape=mxgraph.mockup.containers.userMale;strokeColor=#666666;strokeColor2=#008cff;" vertex="1" parent="1">
          <mxGeometry x="122" y="-162" width="120" height="120" as="geometry" />
        </mxCell>
        <mxCell id="lSI6ECLvZfoEFv0bwXGL-40" value="&lt;div style=&quot;font-family: Consolas, &amp;quot;Courier New&amp;quot;, monospace; font-weight: normal; line-height: 19px; white-space: pre;&quot;&gt;&lt;div&gt;&lt;span&gt;&lt;font style=&quot;color: rgb(0, 0, 0);&quot;&gt;upload&lt;/font&gt;&lt;/span&gt;&lt;/div&gt;&lt;/div&gt;" style="text;whiteSpace=wrap;html=1;fontSize=11;" vertex="1" parent="1">
          <mxGeometry x="190" y="-10" width="140" height="40" as="geometry" />
        </mxCell>
        <mxCell id="lSI6ECLvZfoEFv0bwXGL-48" value="" style="image;aspect=fixed;perimeter=ellipsePerimeter;html=1;align=center;fontSize=12;verticalAlign=top;fontColor=#364149;shadow=0;dashed=0;image=img/lib/cumulus/container.svg;" vertex="1" parent="1">
          <mxGeometry x="690" y="240" width="45" height="40" as="geometry" />
        </mxCell>
        <mxCell id="lSI6ECLvZfoEFv0bwXGL-49" value="" style="image;aspect=fixed;perimeter=ellipsePerimeter;html=1;align=center;fontSize=12;verticalAlign=top;fontColor=#364149;shadow=0;dashed=0;image=img/lib/cumulus/container.svg;" vertex="1" parent="1">
          <mxGeometry x="870" y="240" width="45" height="40" as="geometry" />
        </mxCell>
      </root>
    </mxGraphModel>
  </diagram>
</mxfile>
